HIERARCHY
ROOT root
{
	OFFSET	0	13.1	24.9
	CHANNELS 6  Xposition Yposition Zposition Xrotation Yrotation Zrotation
	JOINT spine_1
	{
		OFFSET	0	9.99999	0
		CHANNELS 3  Xrotation Yrotation Zrotation
		JOINT spine_2
		{
			OFFSET	0	112	-10
			CHANNELS 3  Xrotation Yrotation Zrotation
			JOINT spine_3
			{
				OFFSET	0	206.5	19.3
				CHANNELS 3  Xrotation Yrotation Zrotation
				JOINT spine_4
				{
					OFFSET	0	110.4	14.6
					CHANNELS 3  Xrotation Yrotation Zrotation
					JOINT neck_1
					{
						OFFSET	0	71.8	-50.3
						CHANNELS 3  Xrotation Yrotation Zrotation
						JOINT neck_2
						{
							OFFSET	0	86.2	-25.8
							CHANNELS 3  Xrotation Yrotation Zrotation
							JOINT head_ee
							{
								OFFSET	0	179.8	-8.7
								CHANNELS 3  Xrotation Yrotation Zrotation
								End Site
								{
									OFFSET	1	0	0
								}
							}
						}
					}
					JOINT left_clavicle
					{
						OFFSET	-43.2	22.4	-70.8
						CHANNELS 3  Xrotation Yrotation Zrotation
						JOINT left_shoulder
						{
							OFFSET	-93.9	-5.79999	48.7
							CHANNELS 3  Xrotation Yrotation Zrotation
							JOINT left_elbow
							{
								OFFSET	-291.4	-30.8	15.2
								CHANNELS 3  Xrotation Yrotation Zrotation
								JOINT left_lowarm_twist
								{
									OFFSET	-110.7	-3.89999	13.6
									CHANNELS 3  Xrotation Yrotation Zrotation
									JOINT left_hand
									{
										OFFSET	-110.7	-3.89999	13.6
										CHANNELS 3  Xrotation Yrotation Zrotation
										JOINT left_ee
										{
											OFFSET	-80.8	-5.10001	12.1
											CHANNELS 3  Xrotation Yrotation Zrotation
											End Site
											{
												OFFSET	1	0	0
											}
										}
									}
								}
							}
						}
					}
					JOINT right_clavicle
					{
						OFFSET	43.2	22.4	-70.8
						CHANNELS 3  Xrotation Yrotation Zrotation
						JOINT right_shoulder
						{
							OFFSET	93.9	-5.79999	48.7
							CHANNELS 3  Xrotation Yrotation Zrotation
							JOINT right_elbow
							{
								OFFSET	291.4	-30.8	15.2
								CHANNELS 3  Xrotation Yrotation Zrotation
								JOINT right_lowarm_twist
								{
									OFFSET	110.7	-3.89999	13.6
									CHANNELS 3  Xrotation Yrotation Zrotation
									JOINT right_hand
									{
										OFFSET	110.7	-3.89999	13.6
										CHANNELS 3  Xrotation Yrotation Zrotation
										JOINT right_ee
										{
											OFFSET	80.8	-5.10001	12.1
											CHANNELS 3  Xrotation Yrotation Zrotation
											End Site
											{
												OFFSET	1	0	0
											}
										}
									}
								}
							}
						}
					}
				}
			}
		}
	}
	JOINT left_hip
	{
		OFFSET	-82.8	-127.5	0.300001
		CHANNELS 3  Xrotation Yrotation Zrotation
		JOINT left_knee
		{
			OFFSET	-28.2	-396.7	2.2
			CHANNELS 3  Xrotation Yrotation Zrotation
			JOINT left_ankle
			{
				OFFSET	-11.7	-411.3	35.4
				CHANNELS 3  Xrotation Yrotation Zrotation
				JOINT left_toes
				{
					OFFSET	0	-60	-88.6
					CHANNELS 3  Xrotation Yrotation Zrotation
					JOINT left_foot_ee
					{
						OFFSET	-22.5	-16.5	-42.2
						CHANNELS 3  Xrotation Yrotation Zrotation
						End Site
						{
							OFFSET	1	0	0
						}
					}
				}
			}
		}
	}
	JOINT right_hip
	{
		OFFSET	82.8	-127.5	0.300001
		CHANNELS 3  Xrotation Yrotation Zrotation
		JOINT right_knee
		{
			OFFSET	28.2	-396.7	2.2
			CHANNELS 3  Xrotation Yrotation Zrotation
			JOINT right_ankle
			{
				OFFSET	11.7	-411.3	35.4
				CHANNELS 3  Xrotation Yrotation Zrotation
				JOINT right_toes
				{
					OFFSET	0	-60	-88.6
					CHANNELS 3  Xrotation Yrotation Zrotation
					JOINT right_foot_ee
					{
						OFFSET	22.5	-16.5	-42.2
						CHANNELS 3  Xrotation Yrotation Zrotation
						End Site
						{
							OFFSET	1	0	0
						}
					}
				}
			}
		}
	}
}
MOTION
Frames: 10
Frame Time: 0.02
1566.18 700.076 -683.484 156.046 -76.0111 158.278 -3.19729 -0.139709 -0.333337 -3.19724 -0.118215 -0.341551 -3.19643 -0.0237166 -0.360651 -3.1966 -0.0803768 -0.35238 -10.6414 4.4503 3.96407 -10.6116 5.75844 4.99405 -0.0 0.0 -0.0 8.61567 1.90347 16.7668 10.6758 -28.2037 43.1128 12.8121 -80.9724 10.9496 -43.0017 -3.2759 4.26781 -3.55293 -7.25948 -28.1722 -0.0 0.0 -0.0 9.30614 9.00877 -18.3388 -36.5569 25.86 -61.0735 0.405078 11.3467 -0.0402422 4.36 -0.133084 0.540875 0.732729 -21.6655 -13.0739 0.0 0.0 0.0 -23.7163 29.6368 1.50017 -2.61651 0.0988538 0.389346 30.3809 -32.0654 -4.98742 23.2121 -0.0 -0.0 -0.0 0.0 -0.0 28.7117 19.4902 -8.53214 -2.40927 -0.0916745 -0.35835 -16.9567 24.6933 -3.05001 -23.7364 0.0 0.0 0.0 0.0 0.0 
1586.58 696.969 -675.273 154.461 -77.1572 157.205 -3.21483 -0.204508 -0.393685 -3.21476 -0.179042 -0.405901 -3.21333 -0.0652408 -0.43881 -3.21358 -0.133723 -0.423 -10.0432 4.23485 3.4805 -10.021 5.62231 4.44491 -0.0 0.0 -0.0 8.6749 1.67234 16.8933 8.81098 -27.7617 42.6137 14.9053 -82.2007 13.0204 -43.3893 -3.31861 4.29332 -3.53696 -7.02496 -27.9362 -0.0 0.0 -0.0 9.36526 9.03523 -18.4661 -35.9707 25.9118 -61.1454 0.411929 11.5335 -0.0416008 4.34909 -0.132803 0.539511 0.794221 -22.2695 -13.6453 0.0 0.0 0.0 -24.3476 28.7164 0.321006 -3.48067 0.12758 0.518857 30.8551 -31.6983 -5.02244 22.7911 -0.0 -0.0 -0.0 0.0 -0.0 29.7262 18.8422 -10.4593 -5.80434 -0.195092 -0.869052 -18.4988 25.6072 -3.36573 -22.6875 0.0 0.0 0.0 0.0 0.0 
1611.6 695.092 -669.852 154.418 -77.5708 157.467 -3.1715 -0.20479 -0.592476 -3.17132 -0.166674 -0.604306 -3.16923 -0.00128961 -0.626868 -3.16977 -0.100274 -0.618797 -10.458 3.43117 1.34005 -10.4648 5.57404 2.1801 -0.0 0.0 -0.0 8.5211 1.32033 16.5982 7.79224 -27.1924 43.4668 12.3877 -80.6735 10.5306 -44.1775 -3.406 4.34429 -3.45303 -6.65224 -27.117 -0.0 0.0 -0.0 9.37626 7.73663 -18.5019 -34.6596 26.803 -60.4564 0.377981 10.6055 -0.0350826 2.80434 -0.0903312 0.346762 0.250601 -28.4297 -12.5355 0.0 0.0 0.0 -24.6324 28.0667 -0.464965 -4.81699 0.168143 0.719925 29.164 -27.2782 -4.5493 22.6992 -0.0 -0.0 -0.0 0.0 -0.0 29.7842 18.4138 -11.4425 -8.26238 -0.250983 -1.24209 -15.4942 22.1178 -2.70658 -23.1082 0.0 0.0 0.0 0.0 0.0 
1636.37 691.036 -667.522 153.084 -77.9338 156.336 -2.95517 -0.175819 -0.62698 -2.95497 -0.135567 -0.636897 -2.95313 0.034866 -0.65023 -2.95371 -0.0682611 -0.647577 -9.80948 2.94577 2.10226 -9.80291 4.11286 2.77512 -0.0 0.0 -0.0 6.81839 0.87789 13.233 8.55938 -26.245 48.9358 11.7011 -80.1448 9.85361 -43.0045 -3.27621 4.268 -3.21121 -3.35268 -23.6894 -0.0 0.0 -0.0 9.49491 6.99446 -18.7585 -33.7336 27.364 -59.9145 0.371672 10.4324 -0.0339308 1.54894 -0.0519944 0.190994 0.212185 -29.0732 -12.5368 0.0 0.0 0.0 -24.9726 27.5847 -1.11385 -7.38719 0.232919 1.10901 28.3562 -25.3687 -4.35495 22.8513 -0.0 -0.0 -0.0 0.0 -0.0 29.4263 18.2338 -11.971 -11.1236 -0.295815 -1.6788 -11.7322 19.5271 -1.98985 -23.8935 0.0 0.0 0.0 0.0 0.0 
1661.43 690.964 -664.032 152.357 -78.4545 155.362 -2.94418 -0.0804412 -0.620292 -2.94397 -0.0408082 -0.624153 -2.94325 0.122942 -0.613285 -2.94378 0.024544 -0.625004 -9.41715 2.90454 -0.791109 -9.42357 5.99606 -0.0788721 -0.0 0.0 -0.0 6.78491 2.37926 13.1623 7.6826 -26.0783 51.4851 10.0578 -78.5944 8.23839 -43.2637 -3.30475 4.28508 -3.15077 -2.79337 -22.9684 -0.0 0.0 -0.0 9.56264 7.23929 -18.9037 -32.0059 28.2125 -59.3327 0.350037 9.83737 -0.0301238 0.404945 -0.0140918 0.0497974 0.0296657 -29.2797 -11.6032 0.0 0.0 0.0 -24.2171 27.5156 -1.61336 -11.0313 0.294709 1.66467 25.5595 -22.1201 -3.86879 23.4348 -0.0 -0.0 -0.0 0.0 -0.0 28.7377 17.7294 -11.4994 -13.7379 -0.31767 -2.07929 -8.58369 18.5128 -1.43576 -24.0873 0.0 0.0 0.0 0.0 0.0 
1689.27 695.41 -657.223 150.949 -78.348 154.172 -2.89772 -0.150715 -0.807605 -2.89737 -0.0990211 -0.815558 -2.89546 0.115839 -0.813339 -2.89639 -0.0140624 -0.821426 -8.70487 2.80969 1.11042 -8.70563 4.48697 1.7351 -0.0 0.0 -0.0 5.5782 1.91868 10.8292 5.27392 -25.8094 53.2437 7.82006 -75.4828 6.05683 -43.4629 -3.32674 4.29812 -3.14009 -3.72806 -23.3528 -0.0 0.0 -0.0 9.36988 6.65685 -18.491 -30.7548 29.2006 -58.8123 0.425928 11.9144 -0.0444455 -0.717804 0.0258437 -0.088025 -0.131364 -28.8724 -10.5785 0.0 0.0 0.0 -23.6117 26.1132 -2.42546 -14.8573 0.321438 2.25099 20.2286 -17.892 -3.04288 28.6574 -0.0 -0.0 -0.0 0.0 -0.0 28.0915 18.2166 -11.9854 -15.803 -0.322005 -2.39609 -8.74426 18.4605 -1.46232 -22.7736 0.0 0.0 0.0 0.0 0.0 
1718.97 699.359 -655.245 151.913 -78.4108 154.596 -2.70181 -0.123294 -0.817662 -2.70144 -0.0710164 -0.82385 -2.69996 0.14226 -0.814577 -2.70088 0.0118319 -0.82682 -7.72819 3.35731 1.59191 -7.7245 5.12567 2.29688 -0.0 0.0 -0.0 5.04266 3.99444 9.84897 5.74494 -23.6971 58.7545 6.02131 -71.4345 4.33143 -43.5692 -3.3385 4.30506 -3.1028 0.0993901 -21.1656 -0.0 0.0 -0.0 9.29846 6.30474 -18.3383 -28.7745 29.221 -58.4418 0.417372 11.6817 -0.0426961 -1.46987 0.0541033 -0.179902 -0.140064 -27.7798 -10.1394 0.0 0.0 0.0 -21.2769 22.4894 -2.31689 -20.9983 0.282437 3.19197 13.8972 -10.1537 -2.04459 35.9455 -0.0 -0.0 -0.0 0.0 -0.0 27.1791 18.5371 -11.6488 -19.8771 -0.297081 -3.02056 -0.690228 12.4083 -0.108263 -22.5482 0.0 0.0 0.0 0.0 0.0 
1743.78 702.547 -654.311 153.041 -78.345 155.809 -2.46358 0.0757015 -0.831645 -2.46321 0.128466 -0.825143 -2.46476 0.332301 -0.766124 -2.46552 0.207139 -0.808987 -4.94497 2.4794 0.872118 -4.94066 3.9002 1.31588 -0.0 0.0 -0.0 4.26243 4.45859 8.40292 3.53553 -23.8535 61.0299 5.08011 -68.3033 3.4474 -43.3965 -3.31941 4.29379 -2.81882 -0.524301 -19.451 -0.0 0.0 -0.0 9.1292 6.56265 -17.978 -26.6654 30.513 -58.0773 0.436047 12.1891 -0.0465582 -2.46148 0.093206 -0.30047 -0.0838663 -27.1439 -10.224 0.0 0.0 0.0 -19.0443 17.9162 -2.83199 -26.5839 0.159679 4.03999 5.73317 -1.93986 -0.83915 39.386 -0.0 -0.0 -0.0 0.0 -0.0 25.1902 18.1554 -11.4061 -19.4051 -0.302243 -2.94831 2.03698 9.70603 0.311909 -23.8153 0.0 0.0 0.0 0.0 0.0 
1766.31 702.439 -648.266 153.809 -78.8099 156.707 -2.24578 0.0775306 -0.779147 -2.24545 0.126951 -0.772635 -2.24692 0.314874 -0.716896 -2.24758 0.197705 -0.757625 -5.27356 3.11565 2.21484 -5.25969 4.0798 2.80097 -0.0 0.0 -0.0 3.72988 5.22089 7.44697 2.40928 -21.5261 63.3672 4.48121 -65.7281 2.8959 -42.4154 -3.21163 4.22869 -2.44252 0.902385 -16.1086 -0.0 0.0 -0.0 8.91031 2.17522 -17.4794 -21.3444 32.6278 -57.1528 0.369034 10.36 -0.0334548 -3.93751 0.155267 -0.478659 -0.0191381 -26.2137 -10.2545 0.0 0.0 0.0 -16.3885 13.6181 -3.79354 -32.9806 -0.0815929 4.99152 -1.92653 3.49383 0.28425 40.2978 -0.0 -0.0 -0.0 0.0 -0.0 24.3098 17.2383 -11.4784 -21.2503 -0.278684 -3.23045 8.00524 4.36747 1.17273 -22.3594 0.0 0.0 0.0 0.0 0.0 
1786.44 706.863 -645.738 154.733 -78.6336 157.469 -2.18371 0.281417 -0.827892 -2.18339 0.333526 -0.808309 -2.18802 0.523131 -0.700674 -2.18847 0.405911 -0.774495 -3.32802 2.99066 1.85902 -3.31556 4.00423 2.37352 -0.0 0.0 -0.0 3.3131 6.45878 6.74274 0.94314 -22.3745 64.659 4.00575 -63.2361 2.46672 -42.6799 -3.24058 4.24642 -2.22788 2.33203 -13.9371 -0.0 0.0 -0.0 9.11635 3.89389 -17.9358 -20.4674 33.7238 -56.4143 0.411029 11.509 -0.0414212 -4.91089 0.198701 -0.59528 -0.0891797 -25.8855 -9.739 0.0 0.0 0.0 -13.4233 11.1248 -3.48541 -38.7565 -0.389555 5.82342 -10.2803 11.1525 1.5346 40.2322 -0.0 -0.0 -0.0 0.0 -0.0 22.662 17.2015 -12.0019 -20.6269 -0.287659 -3.13522 11.3645 -0.729353 1.61988 -22.527 0.0 0.0 0.0 0.0 0.0 
